<mxfile host="Electron" modified="2024-06-28T15:00:21.700Z" agent="Mozilla/5.0 (Windows NT 10.0; Win64; x64) AppleWebKit/537.36 (KHTML, like Gecko) draw.io/24.6.1 Chrome/124.0.6367.207 Electron/30.0.6 Safari/537.36" etag="C_7sgj9QPEQuAfLkwhEb" version="24.6.1" type="device">
  <diagram name="Page-1" id="LtuptiencPaZIeM5d5Lo">
    <mxGraphModel dx="1477" dy="799" grid="1" gridSize="10" guides="1" tooltips="1" connect="1" arrows="1" fold="1" page="1" pageScale="1" pageWidth="1169" pageHeight="827" math="0" shadow="0">
      <root>
        <mxCell id="0" />
        <mxCell id="1" parent="0" />
        <mxCell id="r4zgB9ZHkj-7jfiw-rWC-4" value="" style="endArrow=classic;html=1;rounded=0;strokeWidth=3;" edge="1" parent="1">
          <mxGeometry width="50" height="50" relative="1" as="geometry">
            <mxPoint x="120" y="680" as="sourcePoint" />
            <mxPoint x="120" y="40" as="targetPoint" />
          </mxGeometry>
        </mxCell>
        <mxCell id="r4zgB9ZHkj-7jfiw-rWC-5" value="" style="endArrow=classic;html=1;rounded=0;strokeWidth=3;" edge="1" parent="1">
          <mxGeometry width="50" height="50" relative="1" as="geometry">
            <mxPoint x="120" y="680" as="sourcePoint" />
            <mxPoint x="1080" y="680" as="targetPoint" />
          </mxGeometry>
        </mxCell>
        <mxCell id="r4zgB9ZHkj-7jfiw-rWC-6" value="" style="endArrow=none;html=1;rounded=0;strokeColor=#808080;" edge="1" parent="1">
          <mxGeometry width="50" height="50" relative="1" as="geometry">
            <mxPoint x="600" y="50" as="sourcePoint" />
            <mxPoint x="600" y="650" as="targetPoint" />
          </mxGeometry>
        </mxCell>
        <mxCell id="r4zgB9ZHkj-7jfiw-rWC-8" value="&lt;font style=&quot;font-size: 18px;&quot;&gt;&lt;b&gt;Интерес&lt;/b&gt;&lt;/font&gt;" style="text;html=1;align=center;verticalAlign=middle;whiteSpace=wrap;rounded=0;" vertex="1" parent="1">
          <mxGeometry x="570" y="690" width="60" height="30" as="geometry" />
        </mxCell>
        <mxCell id="r4zgB9ZHkj-7jfiw-rWC-11" value="&lt;font style=&quot;font-size: 18px;&quot;&gt;&lt;b&gt;Влияние&lt;/b&gt;&lt;/font&gt;" style="text;html=1;align=center;verticalAlign=middle;whiteSpace=wrap;rounded=0;rotation=-90;" vertex="1" parent="1">
          <mxGeometry x="70" y="340" width="60" height="30" as="geometry" />
        </mxCell>
        <mxCell id="r4zgB9ZHkj-7jfiw-rWC-12" value="&lt;font style=&quot;font-size: 25px;&quot;&gt;&lt;b&gt;Матрица &quot;Влияние-Интерес&quot;&lt;/b&gt;&lt;/font&gt;" style="text;html=1;align=center;verticalAlign=middle;whiteSpace=wrap;rounded=0;" vertex="1" parent="1">
          <mxGeometry x="310" y="10" width="580" height="30" as="geometry" />
        </mxCell>
        <mxCell id="r4zgB9ZHkj-7jfiw-rWC-19" value="" style="endArrow=none;html=1;rounded=0;strokeColor=#808080;" edge="1" parent="1">
          <mxGeometry width="50" height="50" relative="1" as="geometry">
            <mxPoint x="140" y="360" as="sourcePoint" />
            <mxPoint x="1060" y="360" as="targetPoint" />
          </mxGeometry>
        </mxCell>
        <mxCell id="r4zgB9ZHkj-7jfiw-rWC-1" value="Stakeholders" parent="0" />
        <mxCell id="r4zgB9ZHkj-7jfiw-rWC-13" value="&lt;font style=&quot;font-size: 19px;&quot;&gt;Топ-менеджмент&lt;/font&gt;" style="rounded=0;whiteSpace=wrap;html=1;fillColor=#fff2cc;strokeColor=#d6b656;" vertex="1" parent="r4zgB9ZHkj-7jfiw-rWC-1">
          <mxGeometry x="770" y="50" width="120" height="60" as="geometry" />
        </mxCell>
        <mxCell id="r4zgB9ZHkj-7jfiw-rWC-20" value="&lt;font style=&quot;font-size: 19px;&quot;&gt;Админы&lt;/font&gt;" style="rounded=0;whiteSpace=wrap;html=1;fillColor=#fff2cc;strokeColor=#d6b656;" vertex="1" parent="r4zgB9ZHkj-7jfiw-rWC-1">
          <mxGeometry x="464" y="384" width="120" height="60" as="geometry" />
        </mxCell>
        <mxCell id="r4zgB9ZHkj-7jfiw-rWC-21" value="&lt;font style=&quot;font-size: 19px;&quot;&gt;Юристы&lt;/font&gt;" style="rounded=0;whiteSpace=wrap;html=1;fillColor=#fff2cc;strokeColor=#d6b656;" vertex="1" parent="r4zgB9ZHkj-7jfiw-rWC-1">
          <mxGeometry x="190" y="280" width="120" height="60" as="geometry" />
        </mxCell>
        <mxCell id="r4zgB9ZHkj-7jfiw-rWC-22" value="&lt;font style=&quot;font-size: 19px;&quot;&gt;Клиенты&lt;/font&gt;" style="rounded=0;whiteSpace=wrap;html=1;fillColor=#fff2cc;strokeColor=#d6b656;" vertex="1" parent="r4zgB9ZHkj-7jfiw-rWC-1">
          <mxGeometry x="620" y="384" width="120" height="60" as="geometry" />
        </mxCell>
        <mxCell id="r4zgB9ZHkj-7jfiw-rWC-23" value="&lt;font style=&quot;font-size: 19px;&quot;&gt;External Partners (печенье, оплата)&lt;/font&gt;" style="rounded=0;whiteSpace=wrap;html=1;fillColor=#fff2cc;strokeColor=#d6b656;" vertex="1" parent="r4zgB9ZHkj-7jfiw-rWC-1">
          <mxGeometry x="155" y="374" width="190" height="80" as="geometry" />
        </mxCell>
        <mxCell id="r4zgB9ZHkj-7jfiw-rWC-24" value="&lt;font style=&quot;font-size: 19px;&quot;&gt;Менеджеры&lt;/font&gt;" style="rounded=0;whiteSpace=wrap;html=1;fillColor=#fff2cc;strokeColor=#d6b656;" vertex="1" parent="r4zgB9ZHkj-7jfiw-rWC-1">
          <mxGeometry x="550" y="120" width="120" height="60" as="geometry" />
        </mxCell>
        <mxCell id="r4zgB9ZHkj-7jfiw-rWC-25" value="&lt;font style=&quot;font-size: 19px;&quot;&gt;Финотдел&lt;/font&gt;" style="rounded=0;whiteSpace=wrap;html=1;fillColor=#fff2cc;strokeColor=#d6b656;" vertex="1" parent="r4zgB9ZHkj-7jfiw-rWC-1">
          <mxGeometry x="550" y="280" width="120" height="60" as="geometry" />
        </mxCell>
        <mxCell id="r4zgB9ZHkj-7jfiw-rWC-26" value="&lt;font style=&quot;font-size: 19px;&quot;&gt;Разработчики&lt;/font&gt;" style="rounded=0;whiteSpace=wrap;html=1;fillColor=#fff2cc;strokeColor=#d6b656;" vertex="1" parent="r4zgB9ZHkj-7jfiw-rWC-1">
          <mxGeometry x="930" y="290" width="120" height="60" as="geometry" />
        </mxCell>
        <mxCell id="r4zgB9ZHkj-7jfiw-rWC-27" value="&lt;span style=&quot;font-size: 19px;&quot;&gt;Работники склада&lt;/span&gt;" style="rounded=0;whiteSpace=wrap;html=1;fillColor=#fff2cc;strokeColor=#d6b656;" vertex="1" parent="r4zgB9ZHkj-7jfiw-rWC-1">
          <mxGeometry x="790" y="490" width="120" height="60" as="geometry" />
        </mxCell>
      </root>
    </mxGraphModel>
  </diagram>
</mxfile>
